<svg width="32" height="32" viewBox="0 0 32 32" fill="none" xmlns="http://www.w3.org/2000/svg">
<path d="M32 16C32 17.6962 31.8722 19.3924 31.5841 21.0236C30.7197 26.4316 26.4316 30.7197 21.0236 31.5841C19.3913 31.8722 17.6951 32 16 32C14.3049 32 12.6076 31.8722 10.9764 31.5841C5.56838 30.7197 1.28026 26.4316 0.415925 21.0236C0.127812 19.3913 0 17.6951 0 16C0 14.3049 0.127812 12.6076 0.415925 10.9764C1.28026 5.56837 5.56838 1.28026 10.9764 0.415922C12.6087 0.127809 14.3049 0 16 0C17.6951 0 19.3924 0.127809 21.0236 0.415922C26.4316 1.28026 30.7197 5.56837 31.5841 10.9764C31.8722 12.6087 32 14.3049 32 16Z" fill="url(#paint0_linear_2595_2683)"/>
<path d="M13.4752 21.065H5.2716C4.72895 21.065 4.21446 20.7802 3.96426 20.2938C3.67939 19.7382 3.78337 19.071 4.22096 18.6334L9.92906 12.9307C8.09315 12.7173 3.85378 13.8741 3.80396 10.8955H11.361C11.9036 10.8955 12.4181 11.1804 12.6683 11.6667C12.9532 12.2223 12.8492 12.8896 12.4116 13.3271L6.70349 19.0298H11.4379C12.5643 19.0298 13.4752 19.9396 13.4752 21.065Z" fill="white"/>
<path d="M24.1646 10.8193C22.9894 10.8193 21.9322 11.3262 21.2098 12.1386C18.9374 9.41343 14.1738 11.297 14.2918 14.8551V21.1416C17.3213 21.0831 16.0942 16.7062 16.3292 14.8345C16.3595 12.2621 20.1331 12.2187 20.1949 14.7858V19.1064C20.1949 20.2317 21.1058 21.1416 22.2323 21.1416V14.8345C22.2637 12.261 26.0362 12.2198 26.0979 14.7858V19.1064C26.0979 20.2317 27.0089 21.1416 28.1342 21.1416C27.9339 17.7254 29.4676 10.9558 24.1646 10.8193Z" fill="white"/>
<defs>
<linearGradient id="paint0_linear_2595_2683" x1="7.50068" y1="30.5334" x2="24.4148" y2="1.4189" gradientUnits="userSpaceOnUse">
<stop stop-color="#0845BF"/>
<stop offset="0.19" stop-color="#0950DE"/>
<stop offset="0.38" stop-color="#0B59F6"/>
<stop offset="0.5" stop-color="#0B5CFF"/>
<stop offset="0.67" stop-color="#0E5EFE"/>
<stop offset="0.78" stop-color="#1665FC"/>
<stop offset="0.86" stop-color="#246FF9"/>
<stop offset="0.94" stop-color="#387FF4"/>
<stop offset="1" stop-color="#4F90EE"/>
</linearGradient>
</defs>
</svg>
